# xmcd CD database file generated by OrangeCD 6.4
#
# Track frame offsets:
#	150
#	17485
#	34407
#	46987
#	60578
#	69774
#	81802
#	95921
#	114184
#	125541
#	154656
#	169806
#	186643
#	203367
#	221362
#	238759
#	254853
#	269542
#	293415
#	310417
#
# Disc length: 4323 seconds
#
# Revision: 3
# Processed by: cddbd v1.5.2PL0 Copyright (c) Steve Scherf et al.
# Submitted via: OrangeCD 6.4
#
DISCID=1f10e114
DTITLE=Various Artist - Sugar Hill Records: A Retrospective 1998-2003
DYEAR=2006
DGENRE=Bluegrass
TTITLE0=I Walk The Line - Revisited (Rodney Crowell)
TTITLE1=House Of Toms Bombadil (Nickel Creek)
TTITLE2=I Won't Be There (Don Rigsby)
TTITLE3=Dear Sarah (Scott Miller)
TTITLE4=Bound To Ride (Jim Mills)
TTITLE5=My Girlish Days (Mollie O'Brien)
TTITLE6=Man I'm Trying To Be (Ronnie Bowman)
TTITLE7=The Ant And The Ant (Sean Watkins)
TTITLE8=I've Got A Mule To Ride (Tara Nevins)
TTITLE9=Levee Town (Sonny Landreth)
TTITLE10=Bluegrass In The Backwoods (Aubrie Haynie)
TTITLE11=Club Manhattan (Jesse Winchester)
TTITLE12=Little Martha (Jerry Douglas)
TTITLE13=Yonder (Donna The Buffalo)
TTITLE14=Whisper In My Ear (Gibson Brothers)
TTITLE15=Halleluja Shine (The Gourds)
TTITLE16=Chickenshift (Clarence "Gatemouth" Brown)
TTITLE17=Lumpy Beanpole and Dirt (Bad Livers)
TTITLE18=Decision At Gladys Fork (Bryan Sutton)
TTITLE19=I'm Gonna Sleep With One Eye Open (Dolly Parton)
EXTD=
EXTT0=
EXTT1=
EXTT2=
EXTT3=
EXTT4=
EXTT5=
EXTT6=
EXTT7=
EXTT8=
EXTT9=
EXTT10=
EXTT11=
EXTT12=
EXTT13=
EXTT14=
EXTT15=
EXTT16=
EXTT17=
EXTT18=
EXTT19=
PLAYORDER=
